<?xml version="1.0" standalone="no"?><svg xmlns="http://www.w3.org/2000/svg" viewBox="0 0 1440 320"><path fill="#000000" fill-opacity="1" d="M0,64L30,53.3C60,43,120,21,180,21.3C240,21,300,43,360,74.7C420,107,480,149,540,170.7C600,192,660,192,720,186.7C780,181,840,171,900,154.7C960,139,1020,117,1080,144C1140,171,1200,245,1260,229.3C1320,213,1380,107,1410,53.3L1440,0L1440,320L1410,320C1380,320,1320,320,1260,320C1200,320,1140,320,1080,320C1020,320,960,320,900,320C840,320,780,320,720,320C660,320,600,320,540,320C480,320,420,320,360,320C300,320,240,320,180,320C120,320,60,320,30,320L0,320Z"></path></svg>